<svg width="76" height="81" viewBox="0 0 76 81" fill="none" xmlns="http://www.w3.org/2000/svg">
<rect x="20" width="56" height="81" fill="#474D57"/>
<rect width="16" height="16" fill="#F6DA01"/>
<rect y="22" width="16" height="16" fill="#F6DA01"/>
<rect y="43" width="16" height="16" fill="#F6DA01"/>
<rect y="65" width="16" height="16" fill="#F6DA01"/>
<path d="M38.663 17.5899C43.3824 14.4034 51.9656 14.4034 57.1168 17.5899C67.8459 22.7678 69.5625 37.1068 60.5519 45.4712H34.8022C25.358 35.5136 29.2223 22.3695 38.663 17.5899Z" fill="#F5F5F5"/>
<rect x="44.8125" y="40.6915" width="6.00828" height="4.77966" fill="#474D57"/>
<rect width="13.0186" height="6.10055" transform="matrix(0.732967 -0.680265 0.732967 0.680265 44.6279 39.2824)" fill="#474D57"/>
<rect width="12.2587" height="6.10055" transform="matrix(-0.732967 -0.680265 -0.732967 0.680265 50.5449 38.6747)" fill="#474D57"/>
<rect x="38.8037" y="54.2339" width="18.0248" height="7.9661" fill="#F5F5F5"/>
</svg>
