<svg width="80" height="86" viewBox="0 0 80 86" fill="none" xmlns="http://www.w3.org/2000/svg">
<rect width="13.3629" height="10.1204" transform="matrix(0.735852 -0.677143 0.718119 0.69592 12.5889 78.957)" fill="#474D57"/>
<rect width="13.7296" height="7.78803" transform="matrix(0.999967 -0.00817997 0.00940347 0.999956 0 49.5853)" fill="#474D57"/>
<rect width="13.3629" height="10.1204" transform="matrix(-0.735852 -0.677143 -0.718119 0.69592 68.2109 78.957)" fill="#474D57"/>
<path d="M7.77344 49.9713C8.48807 41.29 11.3299 37.0008 19.2556 30.0341L62.2211 25.8369H76.296L69.6289 35.2808C71.155 37.2225 72.3991 38.4334 72.592 40.8772V46.8233C75.6587 46.9723 77.2949 47.3111 79.9999 48.5722V56.617L62.2211 73.756L51.4797 77.2537L25.1819 77.6035L19.2556 73.0564C12.5375 67.9152 10.1115 64.2829 7.77344 56.617V49.9713Z" fill="#474D57"/>
<path d="M38.1953 3C49.4066 3.00027 58.3896 12.2619 58.3896 23.5547C58.3894 34.8473 49.4064 44.1081 38.1953 44.1084C26.984 44.1084 18.0002 34.8475 18 23.5547C18 12.2617 26.9838 3 38.1953 3Z" fill="#F0B90B" stroke="white" stroke-width="6"/>
<rect width="12.2478" height="12.2478" transform="matrix(0.727053 -0.686582 0.727053 0.686582 29.541 24.2984)" fill="white"/>
<ellipse cx="63.7015" cy="45.4242" rx="4.4447" ry="4.19729" fill="white"/>
</svg>
