<svg width="73" height="73" viewBox="0 0 73 73" fill="none" xmlns="http://www.w3.org/2000/svg">
<path d="M15.3716 0.224394H73V65.1081C72.9959 69.054 71.0749 73 67.233 73H7.68362C11.7775 73.014 15.3674 69.054 15.3716 65.1081V0.224394Z" fill="#F0B90B"/>
<path d="M0 29.5945H15.3676V65.7C15.3676 69.7316 12.0993 73 8.06759 73H7.3C3.26832 73 0 69.7316 0 65.7V29.5945Z" fill="#6A6A6A"/>
<path d="M15.3672 0H72.9957V23.6757H15.3672V0Z" fill="#F6CB2C"/>
<path d="M28.8149 7.89187H61.471V17.7567H28.8149V7.89187Z" fill="#76808F"/>
<path d="M19.209 31.5676H38.4185V55.2433H19.209V31.5676Z" fill="#F5F5F5"/>
<path d="M42.2599 31.5676H69.1532V41.4325H42.2599V31.5676Z" fill="#F5F5F5"/>
<path d="M42.2599 45.3783H69.1532V55.2432H42.2599V45.3783Z" fill="#F5F5F5"/>
</svg>
