<svg width="152" height="60" viewBox="0 0 152 60" fill="none" xmlns="http://www.w3.org/2000/svg">
<path d="M26.0995 9.75882H20.4133C20.3094 9.01654 20.0974 8.35722 19.7771 7.78086C19.4569 7.19577 19.0458 6.698 18.5438 6.28756C18.0418 5.87712 17.462 5.56275 16.8042 5.34443C16.1551 5.12611 15.4497 5.01695 14.6881 5.01695C13.312 5.01695 12.1133 5.3619 11.092 6.05178C10.0707 6.73293 9.27881 7.72846 8.71624 9.03837C8.15368 10.3395 7.8724 11.9202 7.8724 13.7802C7.8724 15.6927 8.15368 17.2995 8.71624 18.6007C9.28746 19.9019 10.0837 20.8843 11.105 21.548C12.1262 22.2117 13.3076 22.5435 14.6491 22.5435C15.4021 22.5435 16.0988 22.4431 16.7393 22.2423C17.3884 22.0414 17.9639 21.7489 18.4659 21.3646C18.9679 20.9716 19.3833 20.4957 19.7122 19.9368C20.0497 19.3779 20.2834 18.7404 20.4133 18.0243L26.0995 18.0505C25.9523 19.2819 25.5845 20.4695 24.996 21.6135C24.4161 22.7488 23.6328 23.7661 22.6462 24.6656C21.6682 25.5563 20.4998 26.2637 19.141 26.7876C17.7908 27.3029 16.2633 27.5605 14.5583 27.5605C12.1868 27.5605 10.0664 27.0191 8.19695 25.9362C6.33617 24.8533 4.86484 23.2858 3.78299 21.2336C2.70979 19.1814 2.17319 16.697 2.17319 13.7802C2.17319 10.8548 2.71845 8.36595 3.80895 6.31376C4.89946 4.26157 6.37944 2.69841 8.24888 1.62429C10.1183 0.541429 12.2215 0 14.5583 0C16.0988 0 17.5269 0.218318 18.8424 0.654955C20.1666 1.09159 21.3393 1.72908 22.3606 2.56742C23.3819 3.39703 24.2127 4.41439 24.8532 5.61951C25.5023 6.82463 25.9177 8.2044 26.0995 9.75882Z" fill="#F0BA03"/>
<path d="M30.1305 27.1937V0.366775H40.6201C42.628 0.366775 44.3417 0.729183 45.7611 1.454C47.1891 2.17008 48.2753 3.18745 49.0196 4.50609C49.7726 5.816 50.1491 7.35732 50.1491 9.13007C50.1491 10.9115 49.7683 12.4441 49.0067 13.7278C48.245 15.0028 47.1415 15.9809 45.6962 16.662C44.2595 17.3432 42.5199 17.6838 40.4773 17.6838H33.4539V13.1253H39.5686C40.6418 13.1253 41.5332 12.9768 42.2429 12.6799C42.9526 12.383 43.4805 11.9376 43.8267 11.3438C44.1816 10.75 44.359 10.0121 44.359 9.13007C44.359 8.23933 44.1816 7.48831 43.8267 6.87702C43.4805 6.26573 42.9483 5.8029 42.2299 5.48852C41.5202 5.16541 40.6245 5.00385 39.5426 5.00385H35.7518V27.1937H30.1305ZM44.4888 14.9854L51.0968 27.1937H44.8913L38.4261 14.9854H44.4888Z" fill="#F0BA03"/>
<path d="M51.4571 0.366775H57.7534L63.8162 11.9202H64.0758L70.1385 0.366775H76.4349L66.7372 17.71V27.1937H61.1548V17.71L51.4571 0.366775Z" fill="#F0BA03"/>
<path d="M79.5052 27.1937V0.366775H89.9949C92.0114 0.366775 93.7294 0.755381 95.1488 1.53259C96.5682 2.30107 97.6501 3.37083 98.3944 4.74187C99.1474 6.10418 99.5238 7.67607 99.5238 9.45754C99.5238 11.239 99.143 12.8109 98.3814 14.1732C97.6198 15.5355 96.5163 16.5965 95.0709 17.3563C93.6342 18.116 91.8946 18.4959 89.8521 18.4959H83.1662V13.9505H88.9433C90.0252 13.9505 90.9166 13.7628 91.6176 13.3873C92.3273 13.003 92.8553 12.4747 93.2015 11.8023C93.5563 11.1211 93.7337 10.3395 93.7337 9.45754C93.7337 8.5668 93.5563 7.78959 93.2015 7.12591C92.8553 6.45349 92.3273 5.93389 91.6176 5.56711C90.908 5.19161 90.0079 5.00385 88.9173 5.00385H85.1265V27.1937H79.5052Z" fill="#F0BA03"/>
<path d="M102.162 5.04315V0.366775H123.999V5.04315H115.859V27.1937H110.302V5.04315H102.162Z" fill="#F0BA03"/>
<path d="M150.813 13.7802C150.813 16.7057 150.264 19.1945 149.165 21.2467C148.074 23.2989 146.586 24.8664 144.699 25.9493C142.821 27.0234 140.709 27.5605 138.363 27.5605C136.001 27.5605 133.88 27.0191 132.002 25.9362C130.124 24.8533 128.64 23.2858 127.549 21.2336C126.459 19.1814 125.913 16.697 125.913 13.7802C125.913 10.8548 126.459 8.36595 127.549 6.31376C128.64 4.26157 130.124 2.69841 132.002 1.62429C133.88 0.541429 136.001 0 138.363 0C140.709 0 142.821 0.541429 144.699 1.62429C146.586 2.69841 148.074 4.26157 149.165 6.31376C150.264 8.36595 150.813 10.8548 150.813 13.7802ZM145.114 13.7802C145.114 11.8852 144.833 10.2872 144.27 8.98598C143.716 7.6848 142.933 6.698 141.921 6.02558C140.908 5.35316 139.722 5.01695 138.363 5.01695C137.005 5.01695 135.819 5.35316 134.806 6.02558C133.794 6.698 133.006 7.6848 132.444 8.98598C131.89 10.2872 131.613 11.8852 131.613 13.7802C131.613 15.6752 131.89 17.2733 132.444 18.5745C133.006 19.8757 133.794 20.8625 134.806 21.5349C135.819 22.2073 137.005 22.5435 138.363 22.5435C139.722 22.5435 140.908 22.2073 141.921 21.5349C142.933 20.8625 143.716 19.8757 144.27 18.5745C144.833 17.2733 145.114 15.6752 145.114 13.7802Z" fill="#F0BA03"/>
<path d="M25.8057 49.2557V51.2899H0V49.2557H25.8057Z" fill="#F0BA03"/>
<path d="M28.8481 59.7411H26.4655L33.3567 40.8044H35.7027L42.594 59.7411H40.2114L34.603 43.8003H34.4564L28.8481 59.7411ZM29.7278 52.344H39.3316V54.3782H29.7278V52.344Z" fill="#F0BA03"/>
<path d="M59.7374 46.7221H57.4648C57.3304 46.0626 57.0952 45.4831 56.7592 44.9838C56.4293 44.4845 56.026 44.0653 55.5495 43.7263C55.0791 43.3811 54.5568 43.1222 53.9825 42.9496C53.4082 42.777 52.8095 42.6907 52.1864 42.6907C51.05 42.6907 50.0206 42.9804 49.0981 43.5599C48.1817 44.1393 47.4516 44.9931 46.9079 46.1211C46.3703 47.2492 46.1015 48.6331 46.1015 50.2728C46.1015 51.9125 46.3703 53.2963 46.9079 54.4244C47.4516 55.5525 48.1817 56.4062 49.0981 56.9857C50.0206 57.5651 51.05 57.8548 52.1864 57.8548C52.8095 57.8548 53.4082 57.7685 53.9825 57.5959C54.5568 57.4233 55.0791 57.1675 55.5495 56.8285C56.026 56.4833 56.4293 56.061 56.7592 55.5617C57.0952 55.0562 57.3304 54.4768 57.4648 53.8234H59.7374C59.5664 54.7912 59.2548 55.6573 58.8027 56.4216C58.3506 57.186 57.7886 57.8363 57.1166 58.3726C56.4445 58.9028 55.69 59.3065 54.8531 59.5839C54.0222 59.8613 53.1333 60 52.1864 60C50.5857 60 49.1623 59.6055 47.916 58.8165C46.6697 58.0274 45.6891 56.9055 44.9743 55.4508C44.2595 53.996 43.9022 52.27 43.9022 50.2728C43.9022 48.2755 44.2595 46.5495 44.9743 45.0948C45.6891 43.64 46.6697 42.5181 47.916 41.7291C49.1623 40.9401 50.5857 40.5455 52.1864 40.5455C53.1333 40.5455 54.0222 40.6842 54.8531 40.9616C55.69 41.239 56.4445 41.6459 57.1166 42.1822C57.7886 42.7123 58.3506 43.3595 58.8027 44.1239C59.2548 44.8821 59.5664 45.7482 59.7374 46.7221Z" fill="#F0BA03"/>
<path d="M64.1797 59.7411H61.797L68.6883 40.8044H71.0343L77.9256 59.7411H75.5429L69.9346 43.8003H69.788L64.1797 59.7411ZM65.0594 52.344H74.6632V54.3782H65.0594V52.344Z" fill="#F0BA03"/>
<path d="M86.6405 59.7411H80.8489V40.8044H86.8971C88.7176 40.8044 90.2755 41.1835 91.5707 41.9417C92.8659 42.6938 93.8586 43.7756 94.549 45.1872C95.2393 46.5927 95.5845 48.2755 95.5845 50.2358C95.5845 52.2084 95.2363 53.9066 94.5398 55.3306C93.8433 56.7483 92.8292 57.8394 91.4974 58.6038C90.1655 59.362 88.5466 59.7411 86.6405 59.7411ZM83.1215 57.7069H86.4939C88.0456 57.7069 89.3316 57.4048 90.3519 56.8007C91.3721 56.1966 92.1327 55.3367 92.6337 54.221C93.1347 53.1053 93.3851 51.7769 93.3851 50.2358C93.3851 48.707 93.1377 47.391 92.6429 46.2876C92.148 45.178 91.4088 44.3273 90.4252 43.7355C89.4416 43.1376 88.2167 42.8386 86.7504 42.8386H83.1215V57.7069Z" fill="#F0BA03"/>
<path d="M99.3967 59.7411V40.8044H110.723V42.8386H101.669V49.2372H110.137V51.2714H101.669V57.7069H110.87V59.7411H99.3967Z" fill="#F0BA03"/>
<path d="M114.82 40.8044H117.532L123.91 56.5233H124.13L130.508 40.8044H133.221V59.7411H131.095V45.3537H130.911L125.047 59.7411H122.994L117.129 45.3537H116.946V59.7411H114.82V40.8044Z" fill="#F0BA03"/>
<path d="M136.165 40.8044H138.767L143.972 49.644H144.192L149.397 40.8044H152L145.219 51.9371V59.7411H142.946V51.9371L136.165 40.8044Z" fill="#F0BA03"/>
</svg>
