<svg width="286" height="201" viewBox="0 0 286 201" fill="none" xmlns="http://www.w3.org/2000/svg">
<path d="M0 96.9327H26.9362V157.935H0V96.9327Z" fill="#2DE000" fill-opacity="0.98"/>
<path d="M11.0908 89.0101H15.052V165.065H11.0908V89.0101Z" fill="#2DE000" fill-opacity="0.98"/>
<path d="M42.7819 107.661H69.7181V190.269H42.7819V107.661Z" fill="#2DE000" fill-opacity="0.98"/>
<path d="M53.8728 96.9326H57.834V199.924H53.8728V96.9326Z" fill="#2DE000" fill-opacity="0.98"/>
<path d="M85.5626 92.0309H112.499V170.19H85.5626V92.0309Z" fill="#2DE000" fill-opacity="0.98"/>
<path d="M96.6535 81.8803H100.615V179.326H96.6535V81.8803Z" fill="#2DE000" fill-opacity="0.98"/>
<path d="M128.345 64.9955H155.281V154.593H128.345V64.9955Z" fill="#2DE000" fill-opacity="0.98"/>
<path d="M139 65.0002H143V165H139V65.0002Z" fill="#2DE000" fill-opacity="0.98"/>
<path d="M171.125 77.7704H198.061V155.93H171.125V77.7704Z" fill="#2DE000" fill-opacity="0.98"/>
<path d="M182.216 67.6198H186.177V165.065H182.216V67.6198Z" fill="#2DE000" fill-opacity="0.98"/>
<path d="M213.905 42.0372H240.841V119.561H213.905V42.0372Z" fill="#2DE000" fill-opacity="0.98"/>
<path d="M224.996 31.9691H228.957V128.622H224.996V31.9691Z" fill="#2DE000" fill-opacity="0.98"/>
<path d="M259.064 11.3707H286V73.1655H259.064V11.3707Z" fill="#2DE000" fill-opacity="0.98"/>
<path d="M269.904 0H274.452V81.8687H269.904V0Z" fill="#2DE000" fill-opacity="0.98"/>
<path d="M177.233 140.675L205.508 169.048L192.842 181.67L164.568 153.297L177.233 140.675Z" fill="url(#paint0_linear_361_2)"/>
<path d="M199.158 187.619L192.805 181.63L205.473 168.952L211.794 175.124L199.158 187.619Z" fill="#FF7F05"/>
<path d="M224.185 187.634L235.466 175.348L211.722 175.112L199.049 187.725L211.554 200.677L224.185 187.634Z" fill="#5E6674"/>
<path d="M160.729 152.672L134.245 179.639L121.472 167.127L136.296 152.672H160.729Z" fill="url(#paint1_linear_361_2)"/>
<path d="M134.547 179.331L128.5 185.503L115.727 172.991L121.773 166.819L134.547 179.331Z" fill="#FF7F05"/>
<path d="M128.76 185.224L140.8 200.677L118.014 200.677L103.624 185.333L115.987 172.712L128.76 185.224Z" fill="#5E6674"/>
<path d="M160.069 152.913L135.758 152.754L141.249 146.573L147.563 140.126L160.069 152.913Z" fill="#1075ED"/>
<path d="M179.3 139.565L165.822 121.458L138.215 121.458C137.891 132.579 151.86 146.731 151.86 146.731C151.86 146.731 159.079 154.676 164.45 154.401L179.3 139.565Z" fill="#187BF0"/>
<path d="M138.214 59.4148H158.254L169.51 70.1213L180.765 59.4148H200.257V121.458H138.214V59.4148Z" fill="#FF9021"/>
<path d="M184.335 59.4148H193.12V121.458H184.335V59.4148Z" fill="url(#paint2_linear_361_2)"/>
<path d="M123.389 63.2581H138.214L138.215 121.458L123.389 121.458V63.2581Z" fill="url(#paint3_linear_361_2)"/>
<path d="M138.214 59.4148H148.096V87.4165C147.056 92.6325 143.871 95.8429 138.214 96.2014V59.4148Z" fill="url(#paint4_linear_361_2)"/>
<path d="M118.997 77.5518L138.214 59.4148L138.214 86.3188L133.012 90.7878L118.997 77.5518Z" fill="#FF9021"/>
<path d="M133.114 90.6397L128.173 95.3066H146.291V110.131H126.8C118.767 108.172 116.095 105.46 113.623 98.6009C112.92 90.061 115.354 86.394 122.682 81.0312L133.114 90.6397Z" fill="url(#paint5_linear_361_2)"/>
<path d="M187.081 31.8749C187.081 41.73 179.092 49.7192 169.237 49.7192C159.382 49.7192 151.393 41.73 151.393 31.8749C151.393 22.0198 159.382 14.0307 169.237 14.0307C179.092 14.0307 187.081 22.0198 187.081 31.8749Z" fill="#C2844D"/>
<path d="M181.855 19.2571C178.508 15.9107 173.97 14.0307 169.237 14.0307C164.504 14.0307 159.966 15.9107 156.619 19.2571C153.273 22.6036 151.393 27.1423 151.393 31.8749C151.393 36.6075 153.273 41.1463 156.619 44.4927L181.855 19.2571Z" fill="url(#paint6_linear_361_2)"/>
<path d="M186.096 10.0001L188.451 12.1635L181.75 19.4588L179.395 17.2954L186.096 10.0001Z" fill="#3B4149"/>
<path d="M164.021 69.847L179.944 85.7696V142.322L164.021 126.949V69.847Z" fill="url(#paint7_linear_361_2)"/>
<path d="M195.317 69.847L211.24 85.7696V142.322L195.317 127.009V69.847Z" fill="url(#paint8_linear_361_2)"/>
<path d="M195.317 69.847L179.944 85.7696V142.322L195.317 127.006V69.847Z" fill="#F0BA03"/>
<path d="M226.614 69.847L211.24 85.7696V142.322L226.614 127.006V69.847Z" fill="#F0BA03"/>
<path d="M216.731 103.043L226.867 92.9073L237.003 103.043L226.867 113.179L216.731 103.043Z" fill="#C2844D"/>
<path d="M216.731 103.043L226.867 92.9073L237.003 103.043L226.867 113.179L216.731 103.043Z" fill="#C2844D"/>
<path d="M150.548 103.043L160.683 92.9073L170.819 103.043L160.683 113.179L150.548 103.043Z" fill="#C2844D"/>
<defs>
<linearGradient id="paint0_linear_361_2" x1="281.291" y1="106.28" x2="-2.84676" y2="105.714" gradientUnits="userSpaceOnUse">
<stop stop-color="#CC8D53"/>
<stop offset="1" stop-color="#A36C3C"/>
</linearGradient>
<linearGradient id="paint1_linear_361_2" x1="284.836" y1="100.994" x2="-16.2807" y2="100.356" gradientUnits="userSpaceOnUse">
<stop stop-color="#CC8D53"/>
<stop offset="1" stop-color="#A36C3C"/>
</linearGradient>
<linearGradient id="paint2_linear_361_2" x1="143" y1="0" x2="143" y2="200.677" gradientUnits="userSpaceOnUse">
<stop/>
<stop offset="1" stop-color="#737373"/>
</linearGradient>
<linearGradient id="paint3_linear_361_2" x1="143" y1="0" x2="143" y2="200.677" gradientUnits="userSpaceOnUse">
<stop/>
<stop offset="1" stop-color="#737373"/>
</linearGradient>
<linearGradient id="paint4_linear_361_2" x1="143" y1="0" x2="143" y2="152.754" gradientUnits="userSpaceOnUse">
<stop/>
<stop offset="1" stop-color="#737373"/>
</linearGradient>
<linearGradient id="paint5_linear_361_2" x1="104.684" y1="0" x2="104.684" y2="200.677" gradientUnits="userSpaceOnUse">
<stop stop-color="#AD7442"/>
<stop offset="1" stop-color="#C98A51"/>
</linearGradient>
<linearGradient id="paint6_linear_361_2" x1="224.4" y1="21.6114" x2="104.242" y2="206.961" gradientUnits="userSpaceOnUse">
<stop stop-color="#3C424A"/>
<stop offset="0.9597" stop-color="#090C11"/>
</linearGradient>
<linearGradient id="paint7_linear_361_2" x1="0" y1="0" x2="6.85437" y2="208.03" gradientUnits="userSpaceOnUse">
<stop stop-color="#FEF5D7"/>
<stop offset="1" stop-color="#F1BE0E"/>
</linearGradient>
<linearGradient id="paint8_linear_361_2" x1="0" y1="0" x2="6.85437" y2="208.03" gradientUnits="userSpaceOnUse">
<stop stop-color="#FEF5D7"/>
<stop offset="1" stop-color="#F1BE0E"/>
</linearGradient>
</defs>
</svg>
