<svg width="175" height="179" viewBox="0 0 175 179" fill="none" xmlns="http://www.w3.org/2000/svg">
<path d="M27.8585 18.4389H175V63.5201H27.8585C-11.6555 64.1133 -6.83883 16.956 27.8585 18.4389Z" fill="#202529"/>
<path d="M132.379 40.9652C132.379 63.5896 112.43 81.9304 87.8218 81.9304C63.2135 81.9304 43.2646 63.5896 43.2646 40.9652C43.2646 18.3407 63.2135 0 87.8218 0C112.43 0 132.379 18.3407 132.379 40.9652Z" fill="#F1B90C"/>
<path d="M69.0937 41.3575L87.5901 23.748L106.744 40.7533L88.2473 58.3629L69.0937 41.3575Z" fill="#202529"/>
<path d="M8.14226e-05 40.9652C1.93735 56.1045 13.2381 63.5257 32.9337 62.0414H175V179H28.4134C13.561 179 1.61447 167.423 8.14226e-05 154.065V40.9652Z" fill="#5C6167"/>
<path d="M126.568 97.9602H175V143.081H126.568V97.9602Z" fill="#0B0F12"/>
<path d="M132.38 120.913L150.876 103.304L170.03 120.309L151.534 137.918L132.38 120.913Z" fill="#5C6167"/>
</svg>
